<svg width="539.0749999999999px" height="132.8px" xmlns="http://www.w3.org/2000/svg" viewBox="-19.537499999999966 8.599999999999994 539.0749999999999 132.8" style="background: rgba(0, 0, 0, 0);" preserveAspectRatio="xMidYMid"><defs><linearGradient id="editing-shiny-gradient" x1="0.04322727117869957" x2="0.9567727288213004" y1="0.2966316784620999" y2="0.7033683215379001" gradientUnits="objectBoundingBox"><stop offset="0.0" stop-color="#ffb200"></stop><stop offset="0.5" stop-color="#e10057"></stop><stop offset="1.0" stop-color="#5A1A80"></stop></linearGradient><linearGradient id="editing-shiny-gradient2" x1="0" x2="0" y1="0" y2="1"><stop offset="0.2" stop-color="#fff" stop-opacity="0.8"></stop><stop offset="0.8" stop-color="#fff" stop-opacity="0"></stop></linearGradient><filter id="editing-shiny2" x="-100%" y="-100%" width="300%" height="300%"><feMorphology operator="erode" radius="2"></feMorphology></filter><filter id="editing-shiny" x="-100%" y="-100%" width="300%" height="300%"><feFlood flood-color="#fff" result="flood"></feFlood><feConvolveMatrix in="SourceGraphic" result="conv" order="8,8" divisor="1" kernelMatrix="0 0 0 0 0 0 0 0 0 0 0 1 1 0 0 0 0 0 0 1 1 0 0 0 0 0 1 0 0 1 0 0 0 0 1 0 0 1 0 0 0 1 0 0 0 0 1 0 0 1 1 0 0 1 1 0 0 0 0 1 1 0 0 0 "></feConvolveMatrix><feOffset dx="0" dy="4" in="conv" result="offset"></feOffset><feComposite operator="in" in="flood" in2="offset" result="comp"></feComposite><feGaussianBlur in="offset" stdDeviation="3" result="shadow"></feGaussianBlur><feColorMatrix in="shadow" type="matrix" values="0.7 0 0 0 0  0 0.7 0 0 0  0 0 0.7 0 0  0 0 0 0.3 0" result="dark-shadow"></feColorMatrix><feOffset dx="0" dy="4" in="dark-shadow" result="offset-shadow"></feOffset><feOffset dx="0" dy="2" in="conv" result="offset-2"></feOffset><feComposite operator="out" in="offset" in2="offset-2" result="edge-diff"></feComposite><feGaussianBlur in="edge-diff" stdDeviation="1" result="edge-blur"></feGaussianBlur><feColorMatrix in="edge-blur" result="edge-shadow" type="matrix" values="0 0 0 0 0  0 0 0 0 0  0 0 0 0 0  0 0 0 0.5 0"></feColorMatrix><feComposite operator="in" in="edge-shadow" in2="offset" result="edge-shadow-in"></feComposite><feOffset dx="0" dy="1" in="edge-shadow-in" result="edge-shadow-final"></feOffset><feMerge result="out"><feMergeNode in="offset-shadow"></feMergeNode><feMergeNode in="comp"></feMergeNode><feMergeNode in="edge-shadow-final"></feMergeNode><feMergeNode in="SourceGraphic"></feMergeNode></feMerge></filter></defs><g filter="url(#editing-shiny)"><g transform="translate(59.02498936653137, 102.8700008392334)"><path d="M15.87 0.32L15.87 0.32Q12.29 0.32 9.47-1.47L9.47-1.47L9.47-1.47Q6.66-3.26 5.02-6.82L5.02-6.82L5.02-6.82Q3.39-10.37 3.39-15.49L3.39-15.49L3.39-15.49Q3.39-31.23 15.49-31.23L15.49-31.23L15.49-31.23Q19.84-31.23 23.74-29.38L23.74-29.38L23.74-21.31L20.54-20.99L20.54-27.26L20.54-27.26Q18.62-28.03 15.42-28.03L15.42-28.03L15.42-28.03Q11.01-28.03 9.18-24.77L9.18-24.77L9.18-24.77Q7.36-21.50 7.36-15.42L7.36-15.42L7.36-15.42Q7.36-9.47 9.76-6.21L9.76-6.21L9.76-6.21Q12.16-2.94 16.26-2.94L16.26-2.94L16.26-2.94Q19.97-2.94 23.42-5.31L23.42-5.31L24.96-2.50L24.96-2.50Q22.85-0.96 20.64-0.32L20.64-0.32L20.64-0.32Q18.43 0.32 15.87 0.32L15.87 0.32ZM42.37 0.32L42.37 0.32Q36.29 0.32 33.34-3.81L33.34-3.81L33.34-3.81Q30.40-7.94 30.40-15.49L30.40-15.49L30.40-15.49Q30.40-23.36 33.28-27.30L33.28-27.30L33.28-27.30Q36.16-31.23 42.37-31.23L42.37-31.23L42.37-31.23Q48.58-31.23 51.49-27.30L51.49-27.30L51.49-27.30Q54.40-23.36 54.40-15.49L54.40-15.49L54.40-15.49Q54.40-7.94 51.46-3.81L51.46-3.81L51.46-3.81Q48.51 0.32 42.37 0.32L42.37 0.32ZM42.37-3.01L42.37-3.01Q46.78-3.01 48.58-6.21L48.58-6.21L48.58-6.21Q50.37-9.41 50.37-15.49L50.37-15.49L50.37-15.49Q50.37-21.44 48.54-24.70L48.54-24.70L48.54-24.70Q46.72-27.97 42.37-27.97L42.37-27.97L42.37-27.97Q38.02-27.97 36.19-24.70L36.19-24.70L36.19-24.70Q34.37-21.44 34.37-15.49L34.37-15.49L34.37-15.49Q34.37-9.41 36.16-6.21L36.16-6.21L36.16-6.21Q37.95-3.01 42.37-3.01L42.37-3.01ZM73.79 0.32L73.79 0.32Q67.84 0.32 64.48-3.46L64.48-3.46L64.48-3.46Q61.12-7.23 61.12-15.42L61.12-15.42L61.12-15.42Q61.12-20.80 62.69-24.35L62.69-24.35L62.69-24.35Q64.26-27.90 66.91-29.57L66.91-29.57L66.91-29.57Q69.57-31.23 72.83-31.23L72.83-31.23L72.83-31.23Q74.94-31.23 76.80-30.72L76.80-30.72L76.80-30.72Q78.66-30.21 80.90-28.86L80.90-28.86L80.90-42.43L84.93-42.43L84.93 0L81.66 0L81.34-1.54L81.34-1.54Q77.82 0.32 73.79 0.32L73.79 0.32ZM74.37-3.01L75.20-3.01L75.20-3.01Q76.74-3.01 77.95-3.23L77.95-3.23L77.95-3.23Q79.17-3.46 80.90-4.29L80.90-4.29L80.90-25.28L80.90-25.28Q78.40-26.75 76.67-27.36L76.67-27.36L76.67-27.36Q74.94-27.97 73.34-27.97L73.34-27.97L73.34-27.97Q69.50-27.97 67.30-24.80L67.30-24.80L67.30-24.80Q65.09-21.63 65.09-15.36L65.09-15.36L65.09-15.36Q65.09-3.01 74.37-3.01L74.37-3.01ZM105.92 0.32L105.92 0.32Q92.67 0.32 92.67-15.49L92.67-15.49L92.67-15.49Q92.67-23.36 96.06-27.30L96.06-27.30L96.06-27.30Q99.46-31.23 105.15-31.23L105.15-31.23L105.15-31.23Q110.27-31.23 113.25-27.87L113.25-27.87L113.25-27.87Q116.22-24.51 116.22-18.88L116.22-18.88L116.10-16L115.97-14.66L96.64-14.66L96.64-14.66Q96.70-8.06 99.20-5.54L99.20-5.54L99.20-5.54Q101.70-3.01 105.66-3.01L105.66-3.01L105.66-3.01Q108.10-3.01 110.21-3.58L110.21-3.58L110.21-3.58Q112.32-4.16 114.43-5.50L114.43-5.50L115.65-2.37L115.65-2.37Q113.47-1.02 110.88-0.35L110.88-0.35L110.88-0.35Q108.29 0.32 105.92 0.32L105.92 0.32ZM96.64-17.47L112.51-17.47L112.51-19.01L112.51-19.01Q112.51-23.10 110.53-25.54L110.53-25.54L110.53-25.54Q108.54-27.97 105.15-27.97L105.15-27.97L105.15-27.97Q101.25-27.97 99.14-25.22L99.14-25.22L99.14-25.22Q97.02-22.46 96.64-17.47L96.64-17.47ZM148.42 0L148.42-27.90L142.40-27.90L142.40-30.78L148.42-30.78L148.42-30.78Q148.42-35.52 149.06-38.18L149.06-38.18L149.06-38.18Q149.70-40.83 151.42-42.14L151.42-42.14L151.42-42.14Q153.15-43.46 156.48-43.58L156.48-43.58L156.48-43.58Q159.81-43.58 162.30-42.75L162.30-42.75L161.79-39.62L161.79-39.62Q160.96-39.81 159.58-40.03L159.58-40.03L159.58-40.03Q158.21-40.26 157.38-40.26L157.38-40.26L157.38-40.26Q155.46-40.26 154.43-39.58L154.43-39.58L154.43-39.58Q153.41-38.91 152.93-36.90L152.93-36.90L152.93-36.90Q152.45-34.88 152.45-30.78L152.45-30.78L159.42-30.78L159.42-27.90L152.45-27.90L152.45 0L148.42 0ZM177.28 0.32L177.28 0.32Q171.20 0.32 168.26-3.81L168.26-3.81L168.26-3.81Q165.31-7.94 165.31-15.49L165.31-15.49L165.31-15.49Q165.31-23.36 168.19-27.30L168.19-27.30L168.19-27.30Q171.07-31.23 177.28-31.23L177.28-31.23L177.28-31.23Q183.49-31.23 186.40-27.30L186.40-27.30L186.40-27.30Q189.31-23.36 189.31-15.49L189.31-15.49L189.31-15.49Q189.31-7.94 186.37-3.81L186.37-3.81L186.37-3.81Q183.42 0.32 177.28 0.32L177.28 0.32ZM177.28-3.01L177.28-3.01Q181.70-3.01 183.49-6.21L183.49-6.21L183.49-6.21Q185.28-9.41 185.28-15.49L185.28-15.49L185.28-15.49Q185.28-21.44 183.46-24.70L183.46-24.70L183.46-24.70Q181.63-27.97 177.28-27.97L177.28-27.97L177.28-27.97Q172.93-27.97 171.10-24.70L171.10-24.70L171.10-24.70Q169.28-21.44 169.28-15.49L169.28-15.49L169.28-15.49Q169.28-9.41 171.07-6.21L171.07-6.21L171.07-6.21Q172.86-3.01 177.28-3.01L177.28-3.01ZM197.18 0L197.18-30.78L201.02-30.78L201.15-28.10L201.15-28.10Q202.94-29.31 205.79-30.21L205.79-30.21L205.79-30.21Q208.64-31.10 211.07-31.23L211.07-31.23L211.07-27.90L211.07-27.90Q208.32-27.90 205.54-27.07L205.54-27.07L205.54-27.07Q202.75-26.24 201.22-25.15L201.22-25.15L201.22 0L197.18 0ZM238.40 12.16L238.40-30.78L241.73-30.78L242.05-28.61L242.05-28.61Q244.35-30.08 246.50-30.66L246.50-30.66L246.50-30.66Q248.64-31.23 250.94-31.23L250.94-31.23L250.94-31.23Q255.81-31.23 258.62-27.36L258.62-27.36L258.62-27.36Q261.44-23.49 261.44-15.42L261.44-15.42L261.44-15.42Q261.44-7.04 258.59-3.36L258.59-3.36L258.59-3.36Q255.74 0.32 249.98 0.32L249.98 0.32L249.98 0.32Q245.76 0.32 242.43-1.34L242.43-1.34L242.43 12.16L238.40 12.16ZM248.51-3.01L249.41-3.01L249.41-3.01Q253.63-3.01 255.52-5.86L255.52-5.86L255.52-5.86Q257.41-8.70 257.41-15.36L257.41-15.36L257.41-15.36Q257.41-21.89 255.74-24.93L255.74-24.93L255.74-24.93Q254.08-27.97 250.43-27.97L250.43-27.97L250.43-27.97Q247.04-27.97 242.43-25.28L242.43-25.28L242.43-4.29L242.43-4.29Q244.16-3.46 245.50-3.23L245.50-3.23L245.50-3.23Q246.85-3.01 248.51-3.01L248.51-3.01ZM281.34 0.32L281.34 0.32Q268.10 0.32 268.10-15.49L268.10-15.49L268.10-15.49Q268.10-23.36 271.49-27.30L271.49-27.30L271.49-27.30Q274.88-31.23 280.58-31.23L280.58-31.23L280.58-31.23Q285.70-31.23 288.67-27.87L288.67-27.87L288.67-27.87Q291.65-24.51 291.65-18.88L291.65-18.88L291.52-16L291.39-14.66L272.06-14.66L272.06-14.66Q272.13-8.06 274.62-5.54L274.62-5.54L274.62-5.54Q277.12-3.01 281.09-3.01L281.09-3.01L281.09-3.01Q283.52-3.01 285.63-3.58L285.63-3.58L285.63-3.58Q287.74-4.16 289.86-5.50L289.86-5.50L291.07-2.37L291.07-2.37Q288.90-1.02 286.30-0.35L286.30-0.35L286.30-0.35Q283.71 0.32 281.34 0.32L281.34 0.32ZM272.06-17.47L287.94-17.47L287.94-19.01L287.94-19.01Q287.94-23.10 285.95-25.54L285.95-25.54L285.95-25.54Q283.97-27.97 280.58-27.97L280.58-27.97L280.58-27.97Q276.67-27.97 274.56-25.22L274.56-25.22L274.56-25.22Q272.45-22.46 272.06-17.47L272.06-17.47ZM308.16 0.32L308.16 0.32Q303.68 0.32 300.96-1.92L300.96-1.92L300.96-1.92Q298.24-4.16 298.24-8.38L298.24-8.38L298.24-8.38Q298.24-12.48 301.82-15.10L301.82-15.10L301.82-15.10Q305.41-17.73 313.54-17.73L313.54-17.73L316.22-17.73L316.22-18.69L316.22-18.69Q316.22-23.81 314.46-25.89L314.46-25.89L314.46-25.89Q312.70-27.97 309.50-27.97L309.50-27.97L309.50-27.97Q307.78-27.97 306.05-27.62L306.05-27.62L306.05-27.62Q304.32-27.26 300.80-26.37L300.80-26.37L300.03-29.44L300.03-29.44Q305.41-31.23 309.63-31.23L309.63-31.23L309.63-31.23Q314.50-31.23 317.34-28.38L317.34-28.38L317.34-28.38Q320.19-25.54 320.19-19.26L320.19-19.26L320.19 0L317.31 0L316.67-2.05L316.67-2.05Q315.52-1.15 313.02-0.42L313.02-0.42L313.02-0.42Q310.53 0.32 308.16 0.32L308.16 0.32ZM308.74-2.88L308.74-2.88Q310.72-2.88 312.83-3.49L312.83-3.49L312.83-3.49Q314.94-4.10 316.22-4.93L316.22-4.93L316.22-14.78L314.50-14.78L314.50-14.78Q309.18-14.78 305.60-13.57L305.60-13.57L305.60-13.57Q302.02-12.35 302.02-8.70L302.02-8.70L302.02-8.70Q302.02-5.82 303.74-4.35L303.74-4.35L303.74-4.35Q305.47-2.88 308.74-2.88L308.74-2.88ZM340.48 0.32L340.48 0.32Q336.90 0.32 334.08-1.47L334.08-1.47L334.08-1.47Q331.26-3.26 329.63-6.82L329.63-6.82L329.63-6.82Q328-10.37 328-15.49L328-15.49L328-15.49Q328-31.23 340.10-31.23L340.10-31.23L340.10-31.23Q344.45-31.23 348.35-29.38L348.35-29.38L348.35-21.31L345.15-20.99L345.15-27.26L345.15-27.26Q343.23-28.03 340.03-28.03L340.03-28.03L340.03-28.03Q335.62-28.03 333.79-24.77L333.79-24.77L333.79-24.77Q331.97-21.50 331.97-15.42L331.97-15.42L331.97-15.42Q331.97-9.47 334.37-6.21L334.37-6.21L334.37-6.21Q336.77-2.94 340.86-2.94L340.86-2.94L340.86-2.94Q344.58-2.94 348.03-5.31L348.03-5.31L349.57-2.50L349.57-2.50Q347.46-0.96 345.25-0.32L345.25-0.32L345.25-0.32Q343.04 0.32 340.48 0.32L340.48 0.32ZM368.26 0.32L368.26 0.32Q355.01 0.32 355.01-15.49L355.01-15.49L355.01-15.49Q355.01-23.36 358.40-27.30L358.40-27.30L358.40-27.30Q361.79-31.23 367.49-31.23L367.49-31.23L367.49-31.23Q372.61-31.23 375.58-27.87L375.58-27.87L375.58-27.87Q378.56-24.51 378.56-18.88L378.56-18.88L378.43-16L378.30-14.66L358.98-14.66L358.98-14.66Q359.04-8.06 361.54-5.54L361.54-5.54L361.54-5.54Q364.03-3.01 368-3.01L368-3.01L368-3.01Q370.43-3.01 372.54-3.58L372.54-3.58L372.54-3.58Q374.66-4.16 376.77-5.50L376.77-5.50L377.98-2.37L377.98-2.37Q375.81-1.02 373.22-0.35L373.22-0.35L373.22-0.35Q370.62 0.32 368.26 0.32L368.26 0.32ZM358.98-17.47L374.85-17.47L374.85-19.01L374.85-19.01Q374.85-23.10 372.86-25.54L372.86-25.54L372.86-25.54Q370.88-27.97 367.49-27.97L367.49-27.97L367.49-27.97Q363.58-27.97 361.47-25.22L361.47-25.22L361.47-25.22Q359.36-22.46 358.98-17.47L358.98-17.47Z" fill="url(#editing-shiny-gradient)"></path></g></g><g filter="url(#editing-shiny2)"><g transform="translate(59.024985551834106, 102.87000846862793)"><path d="M15.87 0.32L15.87 0.32Q12.29 0.32 9.47-1.47L9.47-1.47L9.47-1.47Q6.66-3.26 5.02-6.82L5.02-6.82L5.02-6.82Q3.39-10.37 3.39-15.49L3.39-15.49L3.39-15.49Q3.39-31.23 15.49-31.23L15.49-31.23L15.49-31.23Q19.84-31.23 23.74-29.38L23.74-29.38L23.74-21.31L20.54-20.99L20.54-27.26L20.54-27.26Q18.62-28.03 15.42-28.03L15.42-28.03L15.42-28.03Q11.01-28.03 9.18-24.77L9.18-24.77L9.18-24.77Q7.36-21.50 7.36-15.42L7.36-15.42L7.36-15.42Q7.36-9.47 9.76-6.21L9.76-6.21L9.76-6.21Q12.16-2.94 16.26-2.94L16.26-2.94L16.26-2.94Q19.97-2.94 23.42-5.31L23.42-5.31L24.96-2.50L24.96-2.50Q22.85-0.96 20.64-0.32L20.64-0.32L20.64-0.32Q18.43 0.32 15.87 0.32L15.87 0.32ZM42.37 0.32L42.37 0.32Q36.29 0.32 33.34-3.81L33.34-3.81L33.34-3.81Q30.40-7.94 30.40-15.49L30.40-15.49L30.40-15.49Q30.40-23.36 33.28-27.30L33.28-27.30L33.28-27.30Q36.16-31.23 42.37-31.23L42.37-31.23L42.37-31.23Q48.58-31.23 51.49-27.30L51.49-27.30L51.49-27.30Q54.40-23.36 54.40-15.49L54.40-15.49L54.40-15.49Q54.40-7.94 51.46-3.81L51.46-3.81L51.46-3.81Q48.51 0.32 42.37 0.32L42.37 0.32ZM42.37-3.01L42.37-3.01Q46.78-3.01 48.58-6.21L48.58-6.21L48.58-6.21Q50.37-9.41 50.37-15.49L50.37-15.49L50.37-15.49Q50.37-21.44 48.54-24.70L48.54-24.70L48.54-24.70Q46.72-27.97 42.37-27.97L42.37-27.97L42.37-27.97Q38.02-27.97 36.19-24.70L36.19-24.70L36.19-24.70Q34.37-21.44 34.37-15.49L34.37-15.49L34.37-15.49Q34.37-9.41 36.16-6.21L36.16-6.21L36.16-6.21Q37.95-3.01 42.37-3.01L42.37-3.01ZM73.79 0.32L73.79 0.32Q67.84 0.32 64.48-3.46L64.48-3.46L64.48-3.46Q61.12-7.23 61.12-15.42L61.12-15.42L61.12-15.42Q61.12-20.80 62.69-24.35L62.69-24.35L62.69-24.35Q64.26-27.90 66.91-29.57L66.91-29.57L66.91-29.57Q69.57-31.23 72.83-31.23L72.83-31.23L72.83-31.23Q74.94-31.23 76.80-30.72L76.80-30.72L76.80-30.72Q78.66-30.21 80.90-28.86L80.90-28.86L80.90-42.43L84.93-42.43L84.93 0L81.66 0L81.34-1.54L81.34-1.54Q77.82 0.32 73.79 0.32L73.79 0.32ZM74.37-3.01L75.20-3.01L75.20-3.01Q76.74-3.01 77.95-3.23L77.95-3.23L77.95-3.23Q79.17-3.46 80.90-4.29L80.90-4.29L80.90-25.28L80.90-25.28Q78.40-26.75 76.67-27.36L76.67-27.36L76.67-27.36Q74.94-27.97 73.34-27.97L73.34-27.97L73.34-27.97Q69.50-27.97 67.30-24.80L67.30-24.80L67.30-24.80Q65.09-21.63 65.09-15.36L65.09-15.36L65.09-15.36Q65.09-3.01 74.37-3.01L74.37-3.01ZM105.92 0.32L105.92 0.32Q92.67 0.32 92.67-15.49L92.67-15.49L92.67-15.49Q92.67-23.36 96.06-27.30L96.06-27.30L96.06-27.30Q99.46-31.23 105.15-31.23L105.15-31.23L105.15-31.23Q110.27-31.23 113.25-27.87L113.25-27.87L113.25-27.87Q116.22-24.51 116.22-18.88L116.22-18.88L116.10-16L115.97-14.66L96.64-14.66L96.64-14.66Q96.70-8.06 99.20-5.54L99.20-5.54L99.20-5.54Q101.70-3.01 105.66-3.01L105.66-3.01L105.66-3.01Q108.10-3.01 110.21-3.58L110.21-3.58L110.21-3.58Q112.32-4.16 114.43-5.50L114.43-5.50L115.65-2.37L115.65-2.37Q113.47-1.02 110.88-0.35L110.88-0.35L110.88-0.35Q108.29 0.32 105.92 0.32L105.92 0.32ZM96.64-17.47L112.51-17.47L112.51-19.01L112.51-19.01Q112.51-23.10 110.53-25.54L110.53-25.54L110.53-25.54Q108.54-27.97 105.15-27.97L105.15-27.97L105.15-27.97Q101.25-27.97 99.14-25.22L99.14-25.22L99.14-25.22Q97.02-22.46 96.64-17.47L96.64-17.47ZM148.42 0L148.42-27.90L142.40-27.90L142.40-30.78L148.42-30.78L148.42-30.78Q148.42-35.52 149.06-38.18L149.06-38.18L149.06-38.18Q149.70-40.83 151.42-42.14L151.42-42.14L151.42-42.14Q153.15-43.46 156.48-43.58L156.48-43.58L156.48-43.58Q159.81-43.58 162.30-42.75L162.30-42.75L161.79-39.62L161.79-39.62Q160.96-39.81 159.58-40.03L159.58-40.03L159.58-40.03Q158.21-40.26 157.38-40.26L157.38-40.26L157.38-40.26Q155.46-40.26 154.43-39.58L154.43-39.58L154.43-39.58Q153.41-38.91 152.93-36.90L152.93-36.90L152.93-36.90Q152.45-34.88 152.45-30.78L152.45-30.78L159.42-30.78L159.42-27.90L152.45-27.90L152.45 0L148.42 0ZM177.28 0.32L177.28 0.32Q171.20 0.32 168.26-3.81L168.26-3.81L168.26-3.81Q165.31-7.94 165.31-15.49L165.31-15.49L165.31-15.49Q165.31-23.36 168.19-27.30L168.19-27.30L168.19-27.30Q171.07-31.23 177.28-31.23L177.28-31.23L177.28-31.23Q183.49-31.23 186.40-27.30L186.40-27.30L186.40-27.30Q189.31-23.36 189.31-15.49L189.31-15.49L189.31-15.49Q189.31-7.94 186.37-3.81L186.37-3.81L186.37-3.81Q183.42 0.32 177.28 0.32L177.28 0.32ZM177.28-3.01L177.28-3.01Q181.70-3.01 183.49-6.21L183.49-6.21L183.49-6.21Q185.28-9.41 185.28-15.49L185.28-15.49L185.28-15.49Q185.28-21.44 183.46-24.70L183.46-24.70L183.46-24.70Q181.63-27.97 177.28-27.97L177.28-27.97L177.28-27.97Q172.93-27.97 171.10-24.70L171.10-24.70L171.10-24.70Q169.28-21.44 169.28-15.49L169.28-15.49L169.28-15.49Q169.28-9.41 171.07-6.21L171.07-6.21L171.07-6.21Q172.86-3.01 177.28-3.01L177.28-3.01ZM197.18 0L197.18-30.78L201.02-30.78L201.15-28.10L201.15-28.10Q202.94-29.31 205.79-30.21L205.79-30.21L205.79-30.21Q208.64-31.10 211.07-31.23L211.07-31.23L211.07-27.90L211.07-27.90Q208.32-27.90 205.54-27.07L205.54-27.07L205.54-27.07Q202.75-26.24 201.22-25.15L201.22-25.15L201.22 0L197.18 0ZM238.40 12.16L238.40-30.78L241.73-30.78L242.05-28.61L242.05-28.61Q244.35-30.08 246.50-30.66L246.50-30.66L246.50-30.66Q248.64-31.23 250.94-31.23L250.94-31.23L250.94-31.23Q255.81-31.23 258.62-27.36L258.62-27.36L258.62-27.36Q261.44-23.49 261.44-15.42L261.44-15.42L261.44-15.42Q261.44-7.04 258.59-3.36L258.59-3.36L258.59-3.36Q255.74 0.32 249.98 0.32L249.98 0.32L249.98 0.32Q245.76 0.32 242.43-1.34L242.43-1.34L242.43 12.16L238.40 12.16ZM248.51-3.01L249.41-3.01L249.41-3.01Q253.63-3.01 255.52-5.86L255.52-5.86L255.52-5.86Q257.41-8.70 257.41-15.36L257.41-15.36L257.41-15.36Q257.41-21.89 255.74-24.93L255.74-24.93L255.74-24.93Q254.08-27.97 250.43-27.97L250.43-27.97L250.43-27.97Q247.04-27.97 242.43-25.28L242.43-25.28L242.43-4.29L242.43-4.29Q244.16-3.46 245.50-3.23L245.50-3.23L245.50-3.23Q246.85-3.01 248.51-3.01L248.51-3.01ZM281.34 0.32L281.34 0.32Q268.10 0.32 268.10-15.49L268.10-15.49L268.10-15.49Q268.10-23.36 271.49-27.30L271.49-27.30L271.49-27.30Q274.88-31.23 280.58-31.23L280.58-31.23L280.58-31.23Q285.70-31.23 288.67-27.87L288.67-27.87L288.67-27.87Q291.65-24.51 291.65-18.88L291.65-18.88L291.52-16L291.39-14.66L272.06-14.66L272.06-14.66Q272.13-8.06 274.62-5.54L274.62-5.54L274.62-5.54Q277.12-3.01 281.09-3.01L281.09-3.01L281.09-3.01Q283.52-3.01 285.63-3.58L285.63-3.58L285.63-3.58Q287.74-4.16 289.86-5.50L289.86-5.50L291.07-2.37L291.07-2.37Q288.90-1.02 286.30-0.35L286.30-0.35L286.30-0.35Q283.71 0.32 281.34 0.32L281.34 0.32ZM272.06-17.47L287.94-17.47L287.94-19.01L287.94-19.01Q287.94-23.10 285.95-25.54L285.95-25.54L285.95-25.54Q283.97-27.97 280.58-27.97L280.58-27.97L280.58-27.97Q276.67-27.97 274.56-25.22L274.56-25.22L274.56-25.22Q272.45-22.46 272.06-17.47L272.06-17.47ZM308.16 0.32L308.16 0.32Q303.68 0.32 300.96-1.92L300.96-1.92L300.96-1.92Q298.24-4.16 298.24-8.38L298.24-8.38L298.24-8.38Q298.24-12.48 301.82-15.10L301.82-15.10L301.82-15.10Q305.41-17.73 313.54-17.73L313.54-17.73L316.22-17.73L316.22-18.69L316.22-18.69Q316.22-23.81 314.46-25.89L314.46-25.89L314.46-25.89Q312.70-27.97 309.50-27.97L309.50-27.97L309.50-27.97Q307.78-27.97 306.05-27.62L306.05-27.62L306.05-27.62Q304.32-27.26 300.80-26.37L300.80-26.37L300.03-29.44L300.03-29.44Q305.41-31.23 309.63-31.23L309.63-31.23L309.63-31.23Q314.50-31.23 317.34-28.38L317.34-28.38L317.34-28.38Q320.19-25.54 320.19-19.26L320.19-19.26L320.19 0L317.31 0L316.67-2.05L316.67-2.05Q315.52-1.15 313.02-0.42L313.02-0.42L313.02-0.42Q310.53 0.32 308.16 0.32L308.16 0.32ZM308.74-2.88L308.74-2.88Q310.72-2.88 312.83-3.49L312.83-3.49L312.83-3.49Q314.94-4.10 316.22-4.93L316.22-4.93L316.22-14.78L314.50-14.78L314.50-14.78Q309.18-14.78 305.60-13.57L305.60-13.57L305.60-13.57Q302.02-12.35 302.02-8.70L302.02-8.70L302.02-8.70Q302.02-5.82 303.74-4.35L303.74-4.35L303.74-4.35Q305.47-2.88 308.74-2.88L308.74-2.88ZM340.48 0.32L340.48 0.32Q336.90 0.32 334.08-1.47L334.08-1.47L334.08-1.47Q331.26-3.26 329.63-6.82L329.63-6.82L329.63-6.82Q328-10.37 328-15.49L328-15.49L328-15.49Q328-31.23 340.10-31.23L340.10-31.23L340.10-31.23Q344.45-31.23 348.35-29.38L348.35-29.38L348.35-21.31L345.15-20.99L345.15-27.26L345.15-27.26Q343.23-28.03 340.03-28.03L340.03-28.03L340.03-28.03Q335.62-28.03 333.79-24.77L333.79-24.77L333.79-24.77Q331.97-21.50 331.97-15.42L331.97-15.42L331.97-15.42Q331.97-9.47 334.37-6.21L334.37-6.21L334.37-6.21Q336.77-2.94 340.86-2.94L340.86-2.94L340.86-2.94Q344.58-2.94 348.03-5.31L348.03-5.31L349.57-2.50L349.57-2.50Q347.46-0.96 345.25-0.32L345.25-0.32L345.25-0.32Q343.04 0.32 340.48 0.32L340.48 0.32ZM368.26 0.32L368.26 0.32Q355.01 0.32 355.01-15.49L355.01-15.49L355.01-15.49Q355.01-23.36 358.40-27.30L358.40-27.30L358.40-27.30Q361.79-31.23 367.49-31.23L367.49-31.23L367.49-31.23Q372.61-31.23 375.58-27.87L375.58-27.87L375.58-27.87Q378.56-24.51 378.56-18.88L378.56-18.88L378.43-16L378.30-14.66L358.98-14.66L358.98-14.66Q359.04-8.06 361.54-5.54L361.54-5.54L361.54-5.54Q364.03-3.01 368-3.01L368-3.01L368-3.01Q370.43-3.01 372.54-3.58L372.54-3.58L372.54-3.58Q374.66-4.16 376.77-5.50L376.77-5.50L377.98-2.37L377.98-2.37Q375.81-1.02 373.22-0.35L373.22-0.35L373.22-0.35Q370.62 0.32 368.26 0.32L368.26 0.32ZM358.98-17.47L374.85-17.47L374.85-19.01L374.85-19.01Q374.85-23.10 372.86-25.54L372.86-25.54L372.86-25.54Q370.88-27.97 367.49-27.97L367.49-27.97L367.49-27.97Q363.58-27.97 361.47-25.22L361.47-25.22L361.47-25.22Q359.36-22.46 358.98-17.47L358.98-17.47Z" fill="url(#editing-shiny-gradient2)"></path></g></g><style>text {
  font-size: 64px;
  font-family: Arial Black;
  dominant-baseline: central;
  text-anchor: middle;
}</style></svg>