<?xml version="1.0" standalone="no"?>
<!DOCTYPE svg PUBLIC "-//W3C//DTD SVG 20010904//EN"
 "http://www.w3.org/TR/2001/REC-SVG-20010904/DTD/svg10.dtd">
<svg version="1.0" xmlns="http://www.w3.org/2000/svg"
 width="512.000000pt" height="512.000000pt" viewBox="0 0 512.000000 512.000000"
 preserveAspectRatio="xMidYMid meet">
<metadata>
Created by potrace 1.16, written by Peter Selinger 2001-2019
</metadata>
<g transform="translate(0.000000,512.000000) scale(0.100000,-0.100000)"
fill="#000000" stroke="none">
<path d="M1534 4901 c-68 -41 -141 -135 -179 -230 -47 -116 -60 -208 -59 -446
0 -234 19 -392 66 -544 31 -101 101 -229 179 -325 72 -90 80 -116 35 -116 -37
0 -40 -15 -8 -52 l29 -33 -20 -63 c-24 -74 -76 -138 -141 -173 -25 -13 -45
-28 -43 -34 6 -16 75 -35 154 -42 69 -6 73 -7 67 -27 -12 -40 -58 -111 -102
-159 -25 -26 -43 -49 -41 -51 7 -5 223 12 248 20 20 6 23 4 18 -10 -4 -9 1
-34 9 -56 16 -39 16 -40 -15 -88 -40 -62 -40 -76 -1 -68 l30 6 0 -88 c0 -107
-17 -170 -75 -278 -40 -74 -70 -154 -58 -154 2 0 24 13 47 30 l43 29 -14 -67
c-19 -89 -12 -234 17 -327 37 -115 106 -238 132 -232 23 5 35 -47 41 -181 4
-75 14 -201 24 -278 15 -126 15 -160 3 -301 -16 -192 -12 -257 26 -430 l29
-133 47 0 47 0 -5 52 c-3 29 -13 91 -22 138 -18 90 -21 256 -8 373 l8 69 30
-42 c17 -22 32 -39 34 -37 2 2 -12 72 -31 157 -41 185 -58 290 -53 347 l3 43
48 -60 c33 -42 55 -60 70 -60 13 0 29 -6 36 -13 10 -9 15 -9 18 -1 2 8 22 2
56 -17 29 -16 76 -34 106 -41 51 -11 55 -14 76 -63 20 -43 127 -230 142 -245
3 -3 2 22 -1 55 l-6 60 36 -73 c19 -40 38 -96 41 -123 7 -60 18 -53 42 27 l18
59 8 -37 c11 -56 -12 -171 -55 -283 -22 -55 -40 -105 -40 -110 0 -19 64 54
115 130 108 164 161 309 172 473 l6 92 64 31 c50 24 67 38 83 69 11 22 20 47
20 56 0 16 -2 15 -22 -3 -13 -11 -39 -30 -58 -43 l-35 -24 24 27 c28 31 22 32
-42 13 -26 -8 -47 -12 -47 -11 0 2 11 16 24 30 30 32 63 101 75 157 23 105 33
177 32 227 -2 45 3 61 27 95 27 37 61 141 50 152 -3 2 -16 -11 -29 -30 l-24
-34 3 71 c4 78 -3 106 -73 267 -41 97 -37 52 5 -55 33 -81 45 -150 35 -195 -9
-42 -94 -143 -138 -163 -48 -23 -109 -22 -138 3 l-24 20 70 65 c71 67 89 78
78 48 -9 -26 -33 -52 -77 -84 -28 -21 -34 -29 -20 -29 29 1 96 35 121 61 68
74 54 206 -26 239 -36 14 -77 2 -108 -32 -18 -21 -18 -21 14 -4 18 9 39 16 47
16 17 0 36 -29 36 -54 0 -9 -51 -67 -112 -129 -62 -62 -119 -120 -126 -130
-18 -24 -24 -22 -54 26 -15 23 -64 82 -108 130 -44 49 -80 97 -80 107 0 28 26
43 65 37 19 -3 35 -4 35 -2 0 10 -70 45 -89 45 -13 0 -35 -13 -51 -28 -38 -39
-49 -106 -26 -167 20 -51 76 -105 110 -105 21 0 19 4 -21 45 -24 26 -43 55
-43 67 0 20 4 17 32 -17 18 -22 49 -57 69 -78 34 -34 35 -38 19 -47 -67 -36
-172 28 -230 140 -24 45 -15 130 23 226 53 133 54 150 3 45 -72 -148 -92 -238
-66 -307 18 -46 3 -38 -24 13 -24 46 -25 47 -25 18 -1 -36 32 -111 61 -142 22
-23 22 -16 2 -211 -11 -104 27 -240 78 -277 l23 -17 -25 7 c-14 4 -34 13 -45
21 -11 8 -35 24 -52 35 -35 22 -103 122 -103 151 0 33 -20 29 -21 -4 l-1 -33
-18 40 c-11 22 -24 72 -30 110 -7 39 -14 81 -17 95 l-6 25 -9 -30 c-5 -16 -6
-52 -3 -80 l5 -50 -25 45 c-33 61 -65 163 -66 214 -1 35 -2 37 -9 16 -4 -14
-9 -43 -10 -65 l-2 -40 -14 32 c-7 17 -22 73 -32 125 l-19 93 -7 -48 c-4 -26
-5 -57 -2 -70 3 -12 -2 -6 -11 13 -31 66 -29 212 7 400 18 95 34 217 37 287 4
92 9 123 20 127 11 5 13 1 8 -15 -6 -19 -4 -21 24 -17 25 4 31 1 31 -14 0 -16
3 -17 23 -6 12 7 27 11 33 10 15 -3 38 33 67 105 23 56 25 58 73 69 51 12 49
15 -24 34 -43 11 -45 14 -84 98 -45 99 -69 128 -108 137 -35 8 -57 -2 -230
-104 -21 -12 -22 -12 -16 5 5 11 14 44 22 74 17 64 35 94 68 115 22 15 31 14
132 -20 59 -20 115 -40 125 -46 34 -18 169 -32 169 -18 0 5 8 9 19 9 12 0 25
13 35 35 17 34 18 35 76 35 l59 0 -19 -42 c-26 -58 -25 -94 6 -184 24 -67 26
-87 21 -168 -5 -97 -40 -226 -83 -306 l-24 -45 25 30 c39 46 103 183 120 255
21 94 19 155 -11 225 -56 134 -42 212 49 263 52 29 97 76 97 101 0 20 15 11
31 -18 24 -42 97 -88 188 -117 83 -27 127 -59 137 -101 9 -36 -2 -101 -27
-157 -18 -41 -21 -63 -17 -135 4 -80 9 -96 68 -228 35 -79 65 -141 67 -140 1
2 -15 55 -37 118 -32 91 -41 134 -46 214 -5 91 -4 108 21 184 15 46 27 103 28
127 1 24 4 44 5 44 2 0 15 -8 28 -19 31 -24 154 -37 186 -19 13 7 27 11 32 10
5 -2 18 6 30 16 30 28 55 39 106 47 25 3 69 14 98 23 46 14 54 14 66 1 20 -21
85 -179 74 -179 -5 0 -35 20 -66 43 -72 55 -94 67 -127 67 -75 0 -134 -59
-180 -181 -22 -56 -31 -69 -48 -69 -12 0 -28 -4 -36 -9 -10 -7 -7 -14 16 -31
17 -12 43 -48 58 -81 27 -59 64 -99 93 -99 12 0 12 2 1 17 -13 15 -12 15 9 4
32 -17 52 -8 45 21 -6 23 -6 23 15 4 22 -19 22 -19 22 2 0 13 6 22 15 22 12 0
15 -16 15 -82 0 -50 10 -131 25 -203 14 -66 32 -158 40 -205 18 -104 18 -291
0 -345 l-13 -40 -2 60 c-1 33 -7 78 -15 100 l-13 40 -1 -70 c-2 -104 -24 -182
-92 -320 -53 -107 -99 -177 -99 -150 0 51 46 227 86 330 7 19 7 19 -13 2 -11
-10 -35 -49 -52 -86 -24 -53 -33 -87 -37 -152 -6 -85 -19 -139 -35 -139 -5 0
-9 10 -10 23 0 15 -4 9 -14 -18 -7 -22 -34 -80 -59 -129 -26 -48 -45 -90 -42
-93 3 -3 33 11 68 30 67 38 133 100 164 155 l19 33 17 -148 c26 -231 23 -368
-12 -581 -41 -251 -40 -319 5 -199 10 26 21 47 25 47 7 0 17 -60 36 -217 l6
-53 49 0 49 0 0 48 c0 26 -11 117 -24 201 -24 151 -24 158 -9 270 19 141 13
321 -17 530 -30 214 -29 226 25 295 49 63 87 137 105 206 15 53 18 205 7 310
l-7 75 33 -38 c19 -20 37 -37 40 -37 8 0 -20 100 -33 116 -10 11 -9 14 4 14
22 0 22 0 -24 72 -50 78 -90 201 -90 274 0 51 2 54 24 54 39 0 40 18 6 73 -28
45 -31 56 -25 100 7 49 7 49 39 43 17 -4 52 -10 79 -13 41 -5 47 -4 41 10 -5
14 -1 15 28 6 18 -5 55 -7 83 -3 l50 7 -25 16 c-48 31 -132 116 -158 160 -21
37 -25 55 -24 113 2 99 6 108 52 108 48 0 93 16 88 32 -2 6 -18 16 -36 22 -17
6 -39 19 -49 28 -16 17 -16 19 2 32 19 13 18 15 -13 44 -37 35 -40 48 -11 57
24 8 89 63 89 76 0 5 -11 9 -25 9 -25 0 -24 2 25 61 160 192 227 499 190 870
-29 283 -92 466 -203 580 -35 37 -93 79 -108 79 -4 0 -7 -57 -6 -127 0 -114
-2 -136 -25 -195 -35 -94 -80 -165 -171 -272 -225 -264 -257 -313 -321 -490
-5 -15 -9 -16 -21 -6 -8 7 -27 10 -42 7 -19 -4 -40 4 -74 28 -57 39 -105 50
-157 36 -44 -12 -108 -71 -128 -118 -15 -34 -19 -86 -6 -67 16 24 114 93 147
104 54 18 96 -1 158 -71 36 -41 58 -58 70 -55 22 5 47 -19 47 -46 0 -40 23
-97 52 -130 l29 -33 -16 33 c-42 87 -18 219 74 407 41 82 74 129 182 255 222
261 250 305 279 449 l17 86 20 -40 c32 -63 45 -138 33 -192 -14 -61 -5 -66 20
-12 11 24 20 42 20 39 0 -3 7 -43 15 -90 23 -133 37 -377 26 -472 -10 -87 -21
-124 -66 -223 -38 -86 -65 -155 -60 -155 9 0 62 87 83 135 32 76 26 35 -9 -55
-46 -119 -143 -241 -229 -285 -24 -13 -38 -14 -68 -5 -49 13 -52 13 -52 -8 0
-25 96 -222 123 -249 19 -21 19 -23 2 -23 -10 0 -33 -17 -52 -37 -22 -24 -32
-30 -27 -18 11 32 10 58 -2 62 -7 2 -14 -7 -18 -20 -4 -17 -19 -30 -47 -41
-23 -9 -44 -14 -47 -11 -3 3 0 5 7 5 18 0 61 46 61 65 0 14 -6 12 -30 -8 -43
-37 -95 -52 -180 -52 -82 0 -113 12 -177 68 l-36 32 7 -30 c11 -49 40 -79 97
-103 52 -22 53 -22 14 -16 -87 14 -125 48 -125 110 0 52 -37 132 -75 162 -14
11 -48 25 -76 31 -27 6 -64 18 -81 27 -22 12 -28 12 -23 2 18 -30 53 -62 107
-94 44 -27 62 -46 82 -86 14 -29 26 -60 26 -69 0 -10 11 -31 25 -47 31 -37 31
-45 3 -36 -37 11 -55 32 -78 95 -13 33 -34 68 -47 79 -14 11 -63 31 -109 45
-109 33 -146 68 -194 184 -19 47 -40 86 -46 88 -6 2 -17 -16 -25 -39 l-14 -43
-5 45 -5 45 -37 -70 c-42 -82 -83 -126 -147 -158 -40 -19 -62 -22 -161 -22
-91 0 -122 4 -147 18 -18 10 -33 14 -33 9 0 -14 54 -60 83 -71 40 -16 202 -13
265 3 49 13 52 13 52 -4 0 -10 -13 -30 -30 -43 -16 -14 -30 -28 -30 -30 0 -2
19 -1 43 3 51 10 60 5 21 -11 -18 -7 -64 -9 -122 -6 -100 6 -109 -2 -38 -34
76 -34 187 -18 229 34 l18 22 -3 -29 c-9 -87 -208 -103 -292 -22 l-33 31 -22
-27 c-29 -36 -89 -52 -170 -45 -65 5 -65 5 -40 -13 l24 -19 -44 10 c-59 13
-94 32 -124 69 -14 16 -28 30 -31 30 -10 0 -6 -50 5 -71 8 -17 7 -24 -8 -35
-32 -26 -68 -42 -107 -49 l-38 -8 35 46 c19 26 38 59 42 75 3 16 21 44 40 62
41 39 45 60 13 53 -17 -4 -10 7 27 41 l50 46 -32 -6 c-18 -4 -33 -3 -33 0 0 4
21 31 46 60 30 35 59 58 85 66 48 16 49 18 88 110 l32 75 -37 -44 c-42 -49
-121 -91 -171 -91 -39 0 -40 -6 -11 -37 29 -31 17 -39 -32 -23 -124 41 -249
250 -300 502 -40 193 -42 506 -5 667 l17 74 27 -34 c14 -18 36 -45 48 -59 22
-24 22 -22 -4 35 -37 84 -41 143 -12 194 12 22 24 39 26 37 3 -2 11 -31 19
-65 17 -73 68 -179 120 -247 21 -27 88 -107 149 -179 158 -183 225 -295 280
-465 38 -117 46 -268 17 -322 -11 -21 -16 -35 -11 -32 16 10 57 88 74 144 20
63 40 90 67 90 10 0 18 4 18 8 0 5 21 19 46 31 42 21 47 22 63 7 10 -9 25 -16
35 -16 29 0 30 -30 1 -89 -25 -54 -27 -64 -20 -137 l7 -80 -40 -52 c-44 -60
-106 -109 -160 -128 -30 -10 -32 -13 -13 -14 79 -1 152 50 221 156 39 60 48
82 53 135 9 90 68 259 122 345 26 41 49 74 52 74 3 0 3 -55 -1 -122 -8 -149 2
-140 39 37 15 72 34 147 41 169 28 77 13 85 -56 30 -58 -46 -122 -124 -160
-196 l-31 -58 -37 19 c-76 38 -140 33 -194 -16 -10 -9 -20 -14 -21 -12 -2 2
-18 47 -36 99 -59 173 -136 295 -297 475 -50 55 -111 126 -137 158 -83 102
-137 232 -137 331 0 70 -8 80 -46 57z m2016 -1683 c11 -12 20 -26 20 -32 0 -6
-8 -1 -17 9 -10 11 -24 26 -32 33 -9 7 -10 12 -3 12 6 0 20 -10 32 -22z m-851
-158 c21 -10 41 -26 44 -35 8 -20 -7 -19 -24 1 -7 8 -29 24 -48 34 -20 11 -30
19 -23 20 7 0 30 -9 51 -20z m-779 -295 c17 -9 30 -19 30 -23 0 -4 -31 -7 -70
-7 -38 0 -70 3 -70 7 0 9 51 37 68 38 7 0 26 -7 42 -15z m1538 -27 c44 -27 34
-33 -27 -18 -28 6 -63 9 -78 6 -15 -3 -35 -2 -43 3 -12 8 -10 12 10 19 63 24
84 22 138 -10z m-1481 -80 c7 -6 13 -17 13 -25 0 -13 -11 -15 -55 -11 -68 6
-77 14 -46 39 25 21 62 19 88 -3z m1409 -9 c16 -17 16 -22 4 -29 -29 -19 -110
-8 -110 15 0 14 36 33 66 34 11 1 29 -8 40 -20z m-1508 -125 c23 -10 24 -13 7
-13 -26 -1 -61 23 -76 52 -11 21 -10 21 15 -3 15 -13 39 -30 54 -36z m1563 -7
c-11 -28 -42 -36 -69 -18 -10 6 -7 10 12 15 14 3 33 17 43 30 21 28 29 12 14
-27z m-1080 -1061 c50 -33 122 -58 174 -60 l45 -1 0 -81 c0 -104 -13 -119
-104 -118 -72 1 -112 19 -154 70 -51 62 -59 115 -35 238 l5 28 18 -26 c9 -15
32 -38 51 -50z m610 -127 c-23 -76 -95 -133 -185 -145 -58 -8 -87 0 -119 32
-23 23 -27 35 -27 88 0 33 4 66 8 72 4 6 43 13 87 16 88 5 160 34 205 83 l25
27 9 -67 c6 -46 5 -79 -3 -106z m-660 -103 c22 -25 63 -56 92 -70 150 -72 408
-52 516 40 l43 37 -30 -59 c-54 -107 -106 -134 -272 -141 -84 -3 -120 0 -180
16 -41 11 -76 18 -78 17 -5 -5 48 -37 86 -52 l37 -14 -35 6 c-69 12 -150 66
-176 117 -20 37 -74 202 -73 220 0 7 7 -7 15 -30 9 -23 33 -62 55 -87z"/>
<path d="M1467 4386 c-13 -33 -7 -302 8 -388 16 -95 65 -244 98 -298 32 -53
157 -179 200 -201 44 -23 46 -15 11 36 -21 31 -22 36 -7 30 55 -23 59 -20 32
16 -14 19 -31 44 -38 57 -12 23 -12 23 14 6 36 -23 42 -11 12 28 -13 18 -32
48 -41 66 l-17 33 25 -17 c33 -21 33 -8 1 56 -31 60 -32 80 -4 54 20 -18 20
-18 13 11 -12 54 -95 268 -122 319 -15 27 -61 86 -103 130 -62 65 -77 76 -82
62z m127 -202 c28 -57 31 -68 16 -59 -10 6 4 -28 33 -83 18 -33 18 -33 -2 -23
-11 6 -23 16 -26 21 -3 6 -11 10 -16 10 -6 0 -2 -15 9 -32 11 -18 23 -43 27
-56 7 -23 7 -23 -24 -7 -28 14 -46 5 -21 -10 10 -6 70 -118 70 -131 0 -4 -9 1
-20 11 -37 34 -31 8 15 -58 52 -77 57 -92 15 -52 -58 56 -48 22 32 -112 25
-43 17 -42 -33 4 -50 45 -75 95 -122 238 -44 133 -57 214 -56 365 l0 115 39
-44 c21 -24 50 -68 64 -97z"/>
<path d="M3735 4272 c-91 -66 -180 -187 -231 -313 -39 -96 -23 -90 35 12 51
91 131 198 185 248 30 28 31 25 12 -44 -20 -76 -31 -92 -119 -182 -83 -85 -95
-111 -32 -74 55 32 54 26 -6 -36 -69 -71 -124 -143 -111 -143 6 0 36 22 68 49
32 28 60 48 62 46 2 -2 -11 -23 -30 -47 -20 -24 -44 -56 -54 -73 l-19 -30 40
31 c56 43 74 52 52 26 -10 -11 -37 -33 -60 -48 -50 -33 -91 -73 -84 -81 3 -3
32 9 63 26 32 17 59 29 61 28 4 -5 -93 -96 -127 -120 -16 -11 -5 -8 33 8 56
23 57 23 46 3 -6 -11 -30 -41 -53 -66 -37 -40 -38 -44 -16 -37 50 15 111 57
136 95 62 93 127 286 149 440 3 25 15 91 26 148 11 56 19 116 17 133 l-3 31
-40 -30z"/>
<path d="M1745 4230 c52 -74 61 -83 37 -35 -11 22 -32 51 -47 65 -23 21 -22
16 10 -30z"/>
<path d="M1893 4078 c2 -7 21 -61 42 -121 21 -59 40 -106 42 -103 13 12 -66
236 -83 236 -3 0 -4 -6 -1 -12z"/>
<path d="M3352 4003 c-35 -51 -81 -163 -66 -163 2 0 24 41 50 91 45 92 53 124
16 72z"/>
<path d="M2746 3719 c-15 -12 -26 -23 -24 -24 2 -2 26 3 54 10 28 7 64 11 80
8 28 -4 28 -4 10 11 -28 23 -88 20 -120 -5z"/>
<path d="M1505 3603 c20 -48 89 -139 117 -154 l22 -12 -23 29 c-12 16 -44 62
-72 102 -27 39 -52 72 -54 72 -3 0 2 -17 10 -37z"/>
<path d="M3290 3494 c0 -2 21 -35 46 -74 25 -39 50 -84 56 -100 11 -34 28 -40
28 -10 0 39 -30 92 -80 140 -27 26 -50 46 -50 44z"/>
<path d="M2646 3384 c37 -81 78 -144 94 -144 5 0 -2 17 -16 37 -14 21 -38 65
-54 99 -44 92 -66 99 -24 8z"/>
<path d="M3599 3444 c-7 -9 -37 -30 -67 -46 -58 -33 -64 -48 -11 -25 30 13
113 87 97 87 -3 0 -12 -7 -19 -16z"/>
<path d="M3105 3094 c44 -35 101 -54 162 -54 35 0 65 5 69 11 4 8 -2 9 -22 5
-38 -8 -129 9 -177 34 -45 24 -60 25 -32 4z"/>
<path d="M1987 2115 c-16 -20 -36 -54 -46 -76 -18 -40 -19 -40 -25 -14 -4 14
-4 43 -1 63 6 35 5 36 -9 18 -34 -42 -7 -154 50 -207 l26 -24 -9 30 c-14 52
-6 120 22 175 33 64 29 81 -8 35z"/>
<path d="M3347 2066 c4 -51 3 -67 -5 -62 -8 5 -12 -1 -12 -16 -1 -13 -7 -41
-15 -63 -17 -47 -14 -54 14 -26 53 53 65 126 31 196 l-19 40 6 -69z"/>
</g>
</svg>