<?xml version="1.0" standalone="no"?>
<!DOCTYPE svg PUBLIC "-//W3C//DTD SVG 20010904//EN"
 "http://www.w3.org/TR/2001/REC-SVG-20010904/DTD/svg10.dtd">
<svg version="1.0" xmlns="http://www.w3.org/2000/svg"
 width="512.000000pt" height="512.000000pt" viewBox="0 0 512.000000 512.000000"
 preserveAspectRatio="xMidYMid meet">
<metadata>
Created by potrace 1.16, written by Peter Selinger 2001-2019
</metadata>
<g transform="translate(0.000000,512.000000) scale(0.100000,-0.100000)"
fill="#000000" stroke="none">
<path d="M2615 3144 c-232 -19 -540 -73 -673 -118 -73 -25 -133 -63 -290 -183
-60 -46 -89 -62 -103 -58 -27 9 -87 -13 -99 -35 -6 -10 -10 -32 -10 -48 0 -16
-6 -34 -12 -39 -7 -5 -92 -15 -188 -22 -168 -11 -393 -41 -473 -62 -34 -9 -40
-8 -57 13 -18 22 -20 22 -36 6 -14 -14 -15 -21 -6 -30 9 -9 -7 -18 -76 -38
-155 -46 -270 -99 -291 -134 -27 -44 -41 -123 -41 -225 0 -84 -1 -88 -30 -116
-25 -24 -30 -37 -30 -76 0 -96 77 -269 132 -297 28 -14 170 -32 258 -32 l66 0
32 -45 c17 -25 53 -59 79 -75 l47 -30 -50 0 c-71 0 -154 -11 -154 -21 0 -21
279 -76 457 -89 80 -6 213 -6 371 0 136 6 382 15 547 20 319 10 444 18 460 29
16 11 104 29 175 36 36 4 218 25 405 46 780 92 1393 162 1445 165 108 8 310
37 310 46 0 4 -34 8 -75 8 l-76 0 15 28 c8 16 20 49 26 73 11 42 14 46 72 68
76 30 121 69 136 119 19 64 16 96 -35 302 -24 95 -60 128 -188 170 l-100 33
-110 107 c-188 183 -264 231 -475 300 -199 65 -590 147 -882 185 -120 15 -385
26 -473 19z m411 -30 c371 -38 860 -146 1064 -233 119 -51 197 -107 335 -242
66 -64 130 -119 143 -123 12 -4 20 -12 17 -17 -4 -5 5 -9 20 -9 39 0 147 -39
172 -62 35 -32 65 -124 58 -172 -5 -32 -4 -38 5 -26 9 12 10 9 5 -15 -4 -16
-12 -33 -18 -37 -8 -5 -6 -8 6 -8 25 0 21 -20 -5 -21 -18 -1 -17 -3 7 -8 28
-7 27 -8 -20 -16 -27 -4 -60 -12 -72 -16 -13 -5 -23 -5 -23 0 0 12 25 21 58
22 15 0 21 3 14 6 -7 3 -29 2 -48 -1 -30 -6 -34 -11 -34 -36 0 -35 13 -37 104
-15 l58 14 -5 -41 c-6 -48 -37 -84 -92 -108 -84 -36 -80 -38 -77 40 9 187 -57
340 -148 340 -30 0 -84 -59 -105 -115 -10 -25 -22 -42 -28 -38 -6 3 -7 1 -3
-6 4 -6 -3 -54 -15 -107 -18 -72 -27 -94 -39 -92 -8 1 -21 -1 -27 -5 -16 -10
-320 -39 -355 -34 -15 2 -29 0 -30 -4 -3 -6 -455 -39 -532 -39 -28 0 -28 2
-23 39 l5 39 -42 -5 c-53 -7 -59 -13 -13 -13 34 0 37 -2 37 -29 l0 -29 -82 -6
c-46 -3 -144 -8 -218 -11 -74 -3 -179 -8 -232 -12 l-98 -6 0 117 0 116 54 0
c83 0 116 9 116 33 0 19 -4 20 -89 14 l-89 -6 -5 52 c-3 29 -4 53 -2 55 1 1
154 6 340 10 l337 7 -5 -55 c-4 -30 -8 -93 -11 -140 l-5 -85 14 95 c7 52 14
114 14 138 1 25 6 44 14 46 6 3 128 7 270 10 l258 6 -2 -156 c0 -86 2 -158 5
-162 3 -3 6 7 6 21 0 25 4 27 43 29 l42 1 -42 4 -41 4 1 129 2 130 171 0 c94
0 192 3 217 6 42 6 46 5 50 -17 2 -13 4 -1 5 26 0 28 -4 61 -8 75 -6 18 -7 12
-4 -21 l6 -46 -123 -6 c-67 -4 -166 -7 -221 -7 l-98 0 -1 28 -2 27 -4 -26 -4
-26 -172 -6 c-95 -4 -216 -7 -269 -7 l-98 0 0 63 c0 75 -21 164 -55 230 -13
26 -20 47 -14 47 37 0 516 -32 526 -35 6 -2 20 -28 32 -57 11 -29 20 -47 20
-40 1 7 -6 29 -14 49 -8 19 -15 38 -15 41 0 13 419 -35 439 -51 10 -8 13 -8 8
0 -4 6 -1 14 5 16 8 3 7 6 -4 6 -10 1 -36 31 -61 69 -24 37 -70 96 -103 131
-59 65 -169 144 -188 138 -6 -2 -17 3 -25 10 -7 8 -20 12 -27 9 -8 -3 -14 -1
-14 5 0 6 -9 8 -21 4 -16 -5 -19 -4 -14 6 6 9 2 11 -13 7 -12 -4 -22 -2 -22 4
0 6 -9 8 -20 5 -10 -3 -20 -2 -22 2 -4 8 -189 52 -348 82 -223 41 -356 60
-482 65 l-127 6 -29 -28 c-31 -32 -131 -247 -165 -355 l-22 -69 -82 0 c-71 0
-84 3 -93 19 -9 17 -5 20 33 26 23 4 52 13 65 21 32 21 174 314 170 351 -3 28
-3 28 -88 31 -148 6 -430 -24 -644 -68 -55 -11 -101 -19 -103 -17 -7 7 144 48
262 72 106 21 306 49 420 58 108 9 308 5 441 -9z m77 -59 c23 -10 64 -111 91
-226 36 -156 40 -182 25 -177 -7 2 -23 55 -37 119 -13 63 -36 143 -51 179 -24
58 -31 66 -66 78 -54 18 -189 12 -210 -9 -23 -22 -98 -200 -97 -226 1 -13 -3
-23 -9 -23 -5 0 -7 -5 -3 -12 4 -7 3 -8 -4 -4 -12 7 -35 -31 -46 -76 l-6 -28
67 -1 c113 -1 121 -18 9 -18 l-99 -1 7 39 c6 39 71 201 84 211 4 3 9 14 10 25
8 41 63 135 89 150 22 13 49 15 129 11 56 -3 108 -8 117 -11z m139 -24 c-17
-11 12 -25 46 -22 12 1 22 -2 22 -7 0 -6 -9 -8 -20 -5 -25 7 -25 8 9 -68 28
-62 71 -201 71 -229 0 -30 -36 27 -54 85 -15 48 -56 155 -93 243 -3 7 2 12 13
12 14 0 16 -2 6 -9z m65 -7 c-3 -3 -12 -4 -19 -1 -8 3 -5 6 6 6 11 1 17 -2 13
-5z m-289 -11 c-10 -2 -26 -2 -35 0 -10 3 -2 5 17 5 19 0 27 -2 18 -5z m359 1
c-3 -3 -12 -4 -19 -1 -8 3 -5 6 6 6 11 1 17 -2 13 -5z m-304 -11 c-7 -2 -19
-2 -25 0 -7 3 -2 5 12 5 14 0 19 -2 13 -5z m290 -10 c-7 -2 -19 -2 -25 0 -7 3
-2 5 12 5 14 0 19 -2 13 -5z m124 1 c-3 -3 -12 -4 -19 -1 -8 3 -5 6 6 6 11 1
17 -2 13 -5z m-74 -11 c-7 -2 -19 -2 -25 0 -7 3 -2 5 12 5 14 0 19 -2 13 -5z
m124 1 c-3 -3 -12 -4 -19 -1 -8 3 -5 6 6 6 11 1 17 -2 13 -5z m-64 -11 c-7 -2
-19 -2 -25 0 -7 3 -2 5 12 5 14 0 19 -2 13 -5z m50 -10 c-7 -2 -19 -2 -25 0
-7 3 -2 5 12 5 14 0 19 -2 13 -5z m50 -10 c-7 -2 -19 -2 -25 0 -7 3 -2 5 12 5
14 0 19 -2 13 -5z m121 -24 c13 -11 -71 -2 -92 11 -13 8 -4 9 33 4 28 -3 54
-10 59 -15z m84 -67 c40 -89 43 -100 48 -152 2 -25 7 -54 10 -65 4 -11 4 -17
0 -14 -3 3 -17 45 -31 93 -14 48 -39 114 -55 146 -34 68 -35 71 -16 64 7 -3
27 -35 44 -72z m-1658 49 c0 -13 -14 -23 -47 -36 -27 -10 -77 -34 -113 -53
-144 -80 -313 -152 -354 -152 l-41 1 39 32 c65 54 208 155 260 183 39 22 68
28 150 34 55 4 102 8 104 9 1 0 2 -7 2 -18z m1710 -11 c0 -5 -4 -10 -10 -10
-5 0 -10 5 -10 10 0 6 5 10 10 10 6 0 10 -4 10 -10z m-581 -147 c23 -90 25
-103 13 -103 -5 0 -21 50 -36 111 -15 60 -29 118 -32 127 -3 9 4 1 15 -19 11
-19 29 -72 40 -116z m25 115 c8 -18 21 -57 29 -85 15 -51 15 -53 -4 -53 -11 0
-19 7 -19 18 -1 15 -25 89 -45 135 -5 12 -3 17 9 17 10 0 23 -14 30 -32z m540
-18 c13 -27 26 -46 30 -43 4 4 4 -1 0 -11 -6 -15 -4 -17 6 -11 9 5 11 4 6 -3
-4 -6 0 -35 9 -64 18 -61 18 -61 6 -53 -5 3 -17 31 -26 63 -9 31 -27 83 -40
115 -29 70 -23 75 9 7z m53 44 c-3 -3 -12 -4 -19 -1 -8 3 -5 6 6 6 11 1 17 -2
13 -5z m134 -51 c13 -17 13 -17 -6 -3 -11 8 -22 16 -24 17 -2 2 0 3 6 3 6 0
17 -8 24 -17z m61 -27 c9 1 34 -14 55 -33 21 -19 29 -29 19 -22 -11 8 -22 14
-25 14 -3 0 -5 3 -4 7 1 3 -4 9 -12 12 -20 7 -19 -3 5 -42 22 -36 62 -134 56
-139 -2 -2 -20 33 -40 78 -20 45 -39 79 -42 76 -3 -3 2 -19 11 -37 9 -18 15
-34 13 -36 -2 -2 -21 31 -41 74 -21 42 -32 70 -25 61 7 -9 21 -15 30 -13z
m-971 -35 c14 -17 19 -36 17 -60 -3 -34 -5 -36 -51 -44 -27 -4 -86 -6 -130 -5
-80 3 -81 3 -42 15 22 6 78 16 125 21 l85 11 -90 -4 c-49 -3 -105 -7 -122 -11
-32 -6 -33 -6 -33 30 0 23 7 43 21 57 19 19 30 21 111 17 81 -3 92 -5 109 -27z
m-1571 -41 c-19 -17 -43 -35 -54 -41 -17 -10 -18 -9 -12 17 9 37 32 54 70 54
l30 0 -34 -30z m2394 -92 c4 -16 2 -28 -3 -28 -6 0 -15 19 -21 43 -6 23 -15
55 -20 71 -6 16 -10 32 -9 35 1 10 45 -92 53 -121z m278 -39 c11 -38 28 -48
78 -49 14 0 32 -5 40 -11 11 -8 7 -9 -18 -5 -127 22 -560 60 -814 72 -82 4
-148 11 -148 16 0 4 21 8 48 8 129 -1 698 -48 786 -66 32 -7 32 -4 2 71 -14
35 -15 37 -1 20 9 -11 21 -36 27 -56z m-1735 45 c3 -9 1 -19 -6 -23 -7 -5
-116 -11 -244 -14 -139 -4 -296 -15 -392 -27 -162 -21 -328 -54 -355 -72 -13
-8 -12 -9 2 -4 58 17 237 49 378 66 118 15 260 22 496 27 321 6 332 6 337 -13
15 -50 36 -178 42 -256 l7 -88 -39 -2 -38 -1 36 -4 c46 -5 46 -7 55 -216 6
-131 5 -160 -7 -168 -27 -17 -48 -10 -52 19 -3 20 -4 17 -6 -13 -1 -38 -20
-118 -37 -159 -5 -12 -4 -17 3 -13 6 4 16 27 23 52 7 25 18 45 24 45 6 0 70 4
141 10 72 5 263 16 425 25 346 18 450 26 823 61 153 15 280 24 284 21 6 -7 -3
-46 -16 -66 -11 -17 -625 -81 -1016 -105 -143 -9 -354 -25 -470 -35 -261 -24
-248 -24 -242 9 52 258 18 473 -93 594 -54 58 -109 80 -192 74 -83 -5 -130
-29 -204 -103 -70 -70 -122 -166 -156 -292 l-23 -83 -94 0 c-52 0 -91 -3 -87
-7 3 -4 45 -6 92 -4 l86 2 -6 -28 c-3 -15 -8 -50 -12 -78 -4 -27 -13 -66 -21
-86 l-14 -37 -396 -7 c-526 -10 -1021 5 -1129 34 -31 8 -94 81 -94 109 0 9 8
1 18 -18 16 -32 22 -36 77 -43 33 -5 69 -14 80 -20 29 -16 550 -22 713 -8 150
12 194 26 216 70 30 57 21 62 -87 51 -67 -6 -88 -14 -166 -59 l-89 -51 -153 0
c-85 0 -219 3 -299 7 -142 6 -145 7 -173 35 -46 46 -69 58 -110 58 -34 0 -39
3 -54 38 -9 20 -18 58 -21 85 l-5 47 71 0 c80 0 76 4 87 -96 8 -71 34 -120 73
-136 17 -7 122 -13 288 -16 288 -4 281 -6 358 61 24 20 36 38 32 45 -5 8 -55
12 -163 12 -152 0 -155 0 -161 -22 -5 -19 -7 -16 -14 17 -4 22 -7 56 -7 77
l-1 36 57 6 c70 6 359 22 573 31 160 6 226 13 217 21 -6 6 -622 -23 -767 -36
-130 -12 -365 -11 -445 1 -33 5 -90 12 -127 15 -38 4 -68 10 -68 15 0 4 10 15
22 23 26 18 133 22 143 6 4 -7 -8 -10 -34 -9 -22 2 -44 0 -47 -4 -4 -4 15 -7
43 -7 28 0 64 -7 79 -15 23 -12 68 -15 209 -14 184 0 226 4 328 32 34 10 142
21 255 27 109 6 229 15 267 19 l70 8 -95 2 c-98 1 -398 -15 -437 -24 -20 -5
-19 -3 6 23 15 15 36 50 46 77 10 28 19 51 19 52 1 0 69 9 151 18 83 9 162 20
178 25 25 8 27 7 21 -16 l-6 -25 93 3 93 3 14 93 c8 51 12 96 8 99 -3 3 -44 5
-92 4 l-87 -2 15 23 c8 13 39 35 69 50 62 31 61 37 -3 9 -55 -23 -265 -39
-297 -21 -30 15 -19 26 40 40 27 7 48 14 45 17 -2 3 -30 -2 -60 -11 -47 -14
-70 -15 -138 -6 -46 5 -119 9 -163 9 -69 -2 -62 -3 51 -10 73 -5 143 -13 157
-18 l26 -10 -44 -78 c-24 -43 -60 -123 -80 -178 -20 -55 -43 -111 -51 -123 -9
-13 -44 -37 -80 -54 -59 -28 -76 -30 -239 -39 -125 -7 -191 -7 -229 1 -54 11
-88 36 -92 68 -1 9 -5 35 -9 57 l-7 40 23 -44 c32 -60 79 -83 179 -89 89 -5
270 14 315 32 48 21 63 45 110 180 50 141 49 156 -7 175 -48 16 -171 30 -260
31 -43 0 -78 4 -78 9 0 34 13 41 84 43 l71 1 -65 6 -65 6 40 12 c210 61 445
84 920 89 198 2 430 10 515 17 228 20 289 21 297 1z m862 -20 c12 -12 -21 -13
-209 -7 -125 4 -197 10 -185 15 19 8 385 1 394 -8z m-153 -24 l162 0 20 -32
c11 -18 23 -44 27 -58 l8 -25 -19 23 c-26 30 -140 44 -150 18 -3 -9 1 -27 10
-41 15 -23 23 -25 85 -25 47 0 71 4 74 13 7 21 27 -91 27 -153 0 -59 0 -59
-32 -64 -18 -3 -171 -7 -339 -10 l-306 -5 -7 87 c-7 81 -28 211 -41 253 -6 17
3 19 112 22 65 2 138 2 162 0 24 -2 117 -3 207 -3z m-2458 -33 c2 -10 -3 -17
-12 -17 -18 0 -29 16 -21 31 9 14 29 6 33 -14z m-48 -56 c0 -16 -20 -24 -130
-53 -125 -33 -120 -32 -91 -12 23 17 184 73 209 74 6 0 12 -4 12 -9z m2648 2
c-16 -2 -40 -2 -55 0 -16 2 -3 4 27 4 30 0 43 -2 28 -4z m-2654 -50 c4 -4 -14
-13 -41 -20 l-48 -12 45 7 c65 10 255 6 324 -7 65 -12 91 -27 77 -45 -8 -10
-42 -116 -71 -224 -17 -65 -20 -47 -5 33 34 184 37 195 59 196 43 3 -72 17
-149 19 -172 3 -181 2 -182 -22 -1 -13 -9 -66 -17 -118 -9 -52 -17 -108 -19
-125 -4 -28 -4 -28 -5 5 -1 19 5 76 13 125 24 144 26 137 -47 129 -35 -4 -89
-12 -120 -19 -45 -9 -58 -9 -58 0 0 22 29 37 117 60 98 26 116 28 127 18z
m717 -10 l108 6 -11 -24 c-9 -21 -19 -23 -107 -29 -53 -4 -115 -9 -138 -13
-49 -6 -51 -1 -23 45 18 29 22 31 42 21 15 -8 56 -10 129 -6z m-973 -55 c-6
-18 -12 -39 -14 -45 -2 -8 -20 -13 -46 -12 l-43 1 35 8 c19 5 38 6 42 4 5 -3
8 0 8 6 0 7 -12 9 -36 4 -50 -9 -42 13 17 43 24 12 45 23 46 23 1 0 -4 -15 -9
-32z m232 -20 c0 -16 -3 -19 -11 -11 -6 6 -8 16 -5 22 11 17 16 13 16 -11z
m46 -106 c-9 -59 -20 -134 -25 -167 -7 -51 -9 -54 -10 -20 -1 30 21 204 40
315 0 3 3 -1 6 -8 3 -7 -2 -61 -11 -120z m54 124 c0 -2 -5 -28 -11 -57 -5 -30
-16 -105 -24 -168 -16 -126 -31 -166 -21 -56 10 115 39 285 48 285 4 0 8 -2 8
-4z m6 -165 c-22 -150 -36 -209 -36 -150 0 27 24 184 41 267 21 103 18 44 -5
-117z m57 142 c-2 -16 -11 -59 -18 -98 -7 -38 -17 -103 -20 -142 -4 -40 -12
-73 -16 -73 -12 0 -12 -7 11 150 25 166 30 190 39 190 5 0 6 -12 4 -27z m15
-108 c-11 -71 -24 -148 -28 -170 -17 -75 -4 82 15 185 19 106 24 125 29 119 2
-2 -5 -62 -16 -134z m38 32 c-8 -41 -18 -108 -22 -151 -4 -42 -11 -79 -16 -82
-14 -9 14 216 39 316 14 57 14 -13 -1 -83z m41 81 c-3 -8 -6 -5 -6 6 -1 11 2
17 5 13 3 -3 4 -12 1 -19z m743 10 c0 -4 -5 -41 -11 -83 -11 -75 -24 -95 -32
-52 -4 19 -4 18 -6 -5 -1 -26 -4 -28 -47 -28 -38 0 -45 3 -40 16 3 9 9 47 12
85 6 59 5 69 -9 69 -8 0 -18 -6 -20 -12 -4 -9 -6 -7 -6 3 -1 14 11 16 79 15
44 -1 80 -4 80 -8z m-730 -113 c-11 -61 -20 -130 -21 -155 -2 -41 -3 -42 -6
-10 -4 34 23 256 34 273 12 20 10 -5 -7 -108z m30 -3 c-11 -55 -20 -119 -20
-141 0 -23 -4 -41 -10 -41 -13 0 -13 -5 10 140 22 135 31 172 37 154 2 -7 -5
-57 -17 -112z m448 111 c-16 -2 -40 -2 -55 0 -16 2 -3 4 27 4 30 0 43 -2 28
-4z m-791 -35 c-3 -7 -5 -2 -5 12 0 14 2 19 5 13 2 -7 2 -19 0 -25z m858 -23
c-7 -59 -10 -63 -53 -71 -35 -7 -38 -1 -22 41 13 35 -4 23 -20 -14 -12 -31
-20 -34 -133 -47 l-57 -6 9 25 c30 79 51 106 83 110 l33 4 -37 1 c-43 2 -57
-13 -85 -90 -12 -33 -22 -48 -35 -48 -24 0 -23 8 8 84 l26 65 145 -2 145 -2
-7 -50z m49 -15 c-4 -39 -10 -58 -16 -52 -6 6 -6 31 2 67 15 73 23 65 14 -15z
m-1047 28 c-3 -7 -5 -2 -5 12 0 14 2 19 5 13 2 -7 2 -19 0 -25z m83 12 c0 -5
-4 -10 -10 -10 -5 0 -10 5 -10 10 0 6 5 10 10 10 6 0 10 -4 10 -10z m331 -145
c-12 -87 -19 -122 -20 -92 -1 48 30 259 36 241 1 -5 -6 -72 -16 -149z m-454
33 c-2 -24 -4 -7 -4 37 0 44 2 63 4 43 2 -21 2 -57 0 -80z m1060 80 c-3 -7 -5
-2 -5 12 0 14 2 19 5 13 2 -7 2 -19 0 -25z m-980 -10 c-3 -7 -5 -2 -5 12 0 14
2 19 5 13 2 -7 2 -19 0 -25z m-158 5 c-7 -10 -14 -19 -15 -21 -1 -1 -4 6 -7
18 -4 15 0 20 15 20 18 0 19 -2 7 -17z m46 -130 c-6 -34 -12 -37 -64 -27 -41
9 -40 24 3 24 45 0 58 19 56 82 -3 75 3 85 7 13 3 -33 1 -75 -2 -92z m237 117
c-2 -16 -6 -30 -8 -30 -2 0 -4 14 -4 30 0 17 4 30 8 30 5 0 7 -13 4 -30z
m-315 -12 c-3 -8 -6 -5 -6 6 -1 11 2 17 5 13 3 -3 4 -12 1 -19z m53 12 c0 -5
-5 -10 -11 -10 -5 0 -7 5 -4 10 3 6 8 10 11 10 2 0 4 -4 4 -10z m227 -27 c-3
-10 -5 -4 -5 12 0 17 2 24 5 18 2 -7 2 -21 0 -30z m-30 -5 c-3 -7 -5 -2 -5 12
0 14 2 19 5 13 2 -7 2 -19 0 -25z m-27 -6 c0 -15 -2 -15 -10 -2 -13 20 -13 33
0 25 6 -3 10 -14 10 -23z m-178 -13 c-2 -17 -8 -27 -13 -22 -9 9 -1 53 10 53
4 0 6 -14 3 -31z m135 9 c-3 -8 -6 -5 -6 6 -1 11 2 17 5 13 3 -3 4 -12 1 -19z
m-190 -25 c-3 -10 -5 -4 -5 12 0 17 2 24 5 18 2 -7 2 -21 0 -30z m140 -20 c-3
-10 -5 -2 -5 17 0 19 2 27 5 18 2 -10 2 -26 0 -35z m170 0 c-3 -10 -5 -2 -5
17 0 19 2 27 5 18 2 -10 2 -26 0 -35z m-89 -43 l0 -35 -9 40 c-4 22 -8 49 -7
60 0 16 2 15 8 -5 4 -14 8 -41 8 -60z m966 65 c3 -8 1 -15 -4 -15 -6 0 -10 7
-10 15 0 8 2 15 4 15 2 0 6 -7 10 -15z m-947 -17 c-3 -8 -6 -5 -6 6 -1 11 2
17 5 13 3 -3 4 -12 1 -19z m38 -38 c-9 -41 -17 -33 -9 9 4 17 9 30 11 27 3 -2
2 -19 -2 -36z m-210 20 c-3 -5 -21 -10 -38 -9 -31 1 -31 1 -7 9 36 11 52 11
45 0z m112 -12 c-3 -8 -6 -5 -6 6 -1 11 2 17 5 13 3 -3 4 -12 1 -19z m70 -25
c-3 -10 -5 -4 -5 12 0 17 2 24 5 18 2 -7 2 -21 0 -30z m4333 -18 c0 -5 -5 -3
-10 5 -5 8 -10 20 -10 25 0 6 5 3 10 -5 5 -8 10 -19 10 -25z m-4283 -22 c-3
-10 -5 -2 -5 17 0 19 2 27 5 18 2 -10 2 -26 0 -35z m-110 0 c-3 -10 -5 -4 -5
12 0 17 2 24 5 18 2 -7 2 -21 0 -30z m4118 0 c40 -60 56 -180 34 -254 -23 -75
-82 -100 -110 -46 -12 21 -11 21 8 5 53 -48 97 3 97 112 0 122 -36 198 -89
188 -20 -4 -23 -3 -14 8 19 23 55 16 74 -13z m-2181 -12 c37 -25 83 -92 98
-145 17 -60 14 -192 -7 -251 -37 -106 -104 -157 -177 -136 -54 17 -101 62
-129 123 -21 45 -24 68 -23 158 0 122 20 180 80 237 30 28 43 33 82 33 29 0
58 -7 76 -19z m-2104 -1 c-8 -5 -19 -10 -25 -10 -5 0 -3 5 5 10 8 5 20 10 25
10 6 0 3 -5 -5 -10z m70 -10 c0 -5 -4 -10 -10 -10 -5 0 -10 5 -10 10 0 6 5 10
10 10 6 0 10 -4 10 -10z m2403 3 c-7 -2 -19 -2 -25 0 -7 3 -2 5 12 5 14 0 19
-2 13 -5z m1750 -8 c20 8 46 -30 54 -81 3 -22 10 -45 16 -51 13 -17 -1 -82
-22 -102 -11 -11 -12 -13 -1 -7 12 8 12 7 -1 -8 -19 -21 -51 -10 -55 18 -1 9
1 14 6 11 16 -10 38 7 50 36 7 16 10 32 6 36 -3 3 -6 0 -6 -9 0 -22 -35 -49
-54 -42 -9 3 -16 11 -16 17 0 6 -2 8 -5 5 -3 -3 -1 -17 4 -31 6 -16 7 -29 1
-32 -10 -6 -25 59 -17 73 3 4 7 47 8 95 2 48 6 83 9 77 4 -6 14 -8 23 -5z
m290 -2 c-7 -2 -19 -2 -25 0 -7 3 -2 5 12 5 14 0 19 -2 13 -5z m-4206 -35 c-3
-7 -5 -2 -5 12 0 14 2 19 5 13 2 -7 2 -19 0 -25z m-289 15 c-10 -2 -26 -2 -35
0 -10 3 -2 5 17 5 19 0 27 -2 18 -5z m4159 -105 c-3 -8 -6 -5 -6 6 -1 11 2 17
5 13 3 -3 4 -12 1 -19z m-3727 -31 c0 -12 3 -46 6 -74 l7 -53 -125 0 c-69 0
-153 3 -186 6 l-61 7 -6 46 c-4 25 -8 57 -11 71 l-5 25 191 -3 c188 -3 190 -3
190 -25z m3595 -7 c-11 -5 -33 -8 -50 -8 -29 1 -29 1 5 8 49 10 69 10 45 0z
m-117 -17 c-10 -2 -28 -2 -40 0 -13 2 -5 4 17 4 22 1 32 -1 23 -4z m-105 -10
c-13 -2 -33 -2 -45 0 -13 2 -3 4 22 4 25 0 35 -2 23 -4z m-105 -10 c-15 -2
-42 -2 -60 0 -18 2 -6 4 27 4 33 0 48 -2 33 -4z m-120 -10 c-15 -2 -42 -2 -60
0 -18 2 -6 4 27 4 33 0 48 -2 33 -4z m-140 -10 c-16 -2 -40 -2 -55 0 -16 2 -3
4 27 4 30 0 43 -2 28 -4z m-130 -10 c-15 -2 -42 -2 -60 0 -18 2 -6 4 27 4 33
0 48 -2 33 -4z m-143 -9 c-11 -2 -164 -10 -340 -19 -176 -8 -356 -17 -400 -20
l-80 -4 65 10 c36 5 189 16 340 23 260 13 459 17 415 10z m797 -104 l17 -30
-67 0 c-104 0 -541 -19 -597 -26 -45 -5 -48 -4 -35 9 11 12 62 20 185 32 94 9
220 22 280 29 180 22 197 21 217 -14z m-1048 -69 c3 -4 -38 -11 -92 -15 -53
-4 -205 -18 -337 -32 -132 -13 -241 -24 -243 -24 -2 0 -2 6 0 13 3 8 88 20
279 38 301 29 385 33 393 20z m-1366 -89 c6 -9 12 -18 12 -22 0 -3 -143 -16
-317 -28 -175 -13 -340 -26 -367 -29 l-48 -6 46 46 c25 26 46 51 46 56 0 7
105 8 308 5 262 -6 309 -9 320 -22z"/>
<path d="M4445 2515 c104 -17 151 -17 60 1 -38 7 -86 13 -105 12 -19 0 0 -6
45 -13z"/>
<path d="M4257 2490 c7 -28 38 -43 79 -38 30 4 35 1 48 -32 8 -19 15 -30 15
-23 1 7 -7 28 -16 48 -14 28 -22 35 -47 36 -17 0 -40 5 -51 10 -14 6 -6 8 30
4 35 -3 44 -2 30 4 -11 5 -36 10 -57 10 -32 1 -35 -2 -31 -19z"/>
<path d="M3932 2450 c0 -8 4 -26 8 -40 6 -20 8 -21 8 -5 0 11 -3 29 -8 40 -5
12 -8 14 -8 5z"/>
<path d="M4545 2453 c54 -8 188 -44 217 -59 16 -8 33 -25 38 -37 6 -15 9 -17
9 -6 1 17 -21 40 -56 58 -35 18 -174 51 -208 49 l-30 -1 30 -4z"/>
<path d="M3952 2360 c0 -14 2 -19 5 -12 2 6 2 18 0 25 -3 6 -5 1 -5 -13z"/>
<path d="M4500 2360 c-21 -21 -64 -100 -57 -106 2 -2 12 14 22 37 21 46 58 79
88 79 29 0 79 -42 102 -84 14 -26 24 -34 35 -29 8 5 43 7 78 6 66 -2 68 0 51
47 -8 23 -8 23 -5 -5 l5 -31 -73 0 c-72 0 -72 0 -95 37 -42 65 -112 88 -151
49z"/>
<path d="M4402 2210 c0 -14 2 -19 5 -12 2 6 2 18 0 25 -3 6 -5 1 -5 -13z"/>
<path d="M4691 2194 c0 -11 3 -14 6 -6 3 7 2 16 -1 19 -3 4 -6 -2 -5 -13z"/>
<path d="M4392 2150 c0 -14 2 -19 5 -12 2 6 2 18 0 25 -3 6 -5 1 -5 -13z"/>
<path d="M4700 2155 c0 -8 8 -11 20 -8 11 3 20 7 20 8 0 1 -9 5 -20 8 -12 3
-20 0 -20 -8z"/>
<path d="M4768 2163 c6 -2 18 -2 25 0 6 3 1 5 -13 5 -14 0 -19 -2 -12 -5z"/>
<path d="M4381 2104 c0 -11 3 -14 6 -6 3 7 2 16 -1 19 -3 4 -6 -2 -5 -13z"/>
<path d="M4371 2064 c0 -11 3 -14 6 -6 3 7 2 16 -1 19 -3 4 -6 -2 -5 -13z"/>
<path d="M4290 2030 l-75 -6 78 -2 c46 -1 77 2 77 8 0 6 -1 9 -2 8 -2 -1 -37
-4 -78 -8z"/>
<path d="M4103 2013 c20 -2 54 -2 75 0 20 2 3 4 -38 4 -41 0 -58 -2 -37 -4z"/>
<path d="M3828 1993 c17 -2 47 -2 65 0 17 2 3 4 -33 4 -36 0 -50 -2 -32 -4z"/>
<path d="M3677 1983 c18 -2 50 -2 70 0 21 2 7 4 -32 4 -38 0 -55 -2 -38 -4z"/>
<path d="M3558 1973 c18 -2 45 -2 60 0 15 2 0 4 -33 4 -33 0 -45 -2 -27 -4z"/>
<path d="M3443 1963 c15 -2 37 -2 50 0 12 2 0 4 -28 4 -27 0 -38 -2 -22 -4z"/>
<path d="M3228 1943 c12 -2 32 -2 45 0 12 2 2 4 -23 4 -25 0 -35 -2 -22 -4z"/>
<path d="M3118 1933 c12 -2 32 -2 45 0 12 2 2 4 -23 4 -25 0 -35 -2 -22 -4z"/>
<path d="M3023 1923 c9 -2 25 -2 35 0 9 3 1 5 -18 5 -19 0 -27 -2 -17 -5z"/>
<path d="M4050 2805 c0 -5 5 -17 10 -25 5 -8 10 -10 10 -5 0 6 -5 17 -10 25
-5 8 -10 11 -10 5z"/>
<path d="M2060 2543 c-237 -22 -314 -41 -352 -83 -16 -17 -28 -36 -28 -43 0
-6 8 0 18 15 9 16 31 35 49 43 42 20 159 43 265 51 46 4 90 10 98 15 17 9 20
9 -50 2z"/>
<path d="M2138 2543 c6 -2 18 -2 25 0 6 3 1 5 -13 5 -14 0 -19 -2 -12 -5z"/>
<path d="M2196 2504 c-101 -18 -193 -63 -241 -115 -21 -23 -53 -75 -72 -116
l-34 -73 -72 -2 -72 -2 69 -3 68 -4 -6 -27 c-3 -15 -19 -75 -35 -134 -16 -60
-26 -108 -21 -108 5 0 16 26 25 58 9 31 27 94 41 140 l25 82 67 0 67 0 50 67
c84 113 199 172 311 160 135 -14 221 -105 281 -297 14 -45 21 -59 17 -35 -14
95 -79 234 -127 274 -10 7 -17 19 -17 26 0 24 -53 78 -95 96 -58 25 -139 30
-229 13z m206 -14 c39 -11 108 -68 108 -89 0 -8 -14 -4 -37 11 -33 20 -51 23
-133 23 -89 0 -99 -2 -158 -34 -59 -32 -106 -76 -163 -150 -22 -30 -31 -35
-82 -39 -31 -2 -57 -1 -57 3 0 28 76 158 107 184 99 81 295 124 415 91z"/>
<path d="M1503 2203 c-43 -3 -53 -7 -53 -22 0 -10 -3 -33 -6 -50 l-6 -31 86 0
c84 0 87 1 96 26 6 14 10 39 10 55 0 32 6 31 -127 22z m45 -20 c-10 -2 -28 -2
-40 0 -13 2 -5 4 17 4 22 1 32 -1 23 -4z m2 -28 c0 -8 -12 -17 -27 -21 -16 -3
-34 -7 -40 -10 -8 -2 -13 6 -13 19 0 19 6 22 40 24 29 2 40 -1 40 -12z"/>
<path d="M1282 2183 c-39 -4 -45 -8 -58 -38 -8 -19 -14 -37 -14 -41 0 -9 172
4 181 14 3 4 9 22 12 40 l7 32 -43 -2 c-23 -1 -61 -3 -85 -5z m108 -27 c0 -8
-5 -18 -12 -22 -7 -4 -8 -3 -4 5 11 16 -23 26 -45 13 -10 -7 -28 -12 -39 -12
-14 0 -19 -4 -14 -12 4 -8 3 -10 -2 -5 -29 27 -1 45 69 46 35 1 47 -3 47 -13z
m-143 -18 c-3 -8 -6 -5 -6 6 -1 11 2 17 5 13 3 -3 4 -12 1 -19z m91 -15 c-10
-2 -26 -2 -35 0 -10 3 -2 5 17 5 19 0 27 -2 18 -5z"/>
<path d="M401 2077 c2 -1 13 -9 24 -17 19 -14 19 -14 6 3 -7 9 -18 17 -24 17
-6 0 -8 -1 -6 -3z"/>
<path d="M2673 2000 c0 -30 2 -43 4 -27 2 15 2 39 0 55 -2 15 -4 2 -4 -28z"/>
<path d="M538 2023 c7 -3 16 -2 19 1 4 3 -2 6 -13 5 -11 0 -14 -3 -6 -6z"/>
<path d="M1668 1883 c6 -2 18 -2 25 0 6 3 1 5 -13 5 -14 0 -19 -2 -12 -5z"/>
<path d="M1756 1803 c-10 -37 -26 -83 -37 -101 -10 -18 -14 -30 -9 -27 6 3 16
19 24 34 17 32 49 151 43 157 -2 3 -12 -26 -21 -63z"/>
<path d="M538 2433 c7 -3 16 -2 19 1 4 3 -2 6 -13 5 -11 0 -14 -3 -6 -6z"/>
<path d="M498 2423 c7 -3 16 -2 19 1 4 3 -2 6 -13 5 -11 0 -14 -3 -6 -6z"/>
<path d="M458 2413 c7 -3 16 -2 19 1 4 3 -2 6 -13 5 -11 0 -14 -3 -6 -6z"/>
<path d="M1592 2340 c0 -14 2 -19 5 -12 2 6 2 18 0 25 -3 6 -5 1 -5 -13z"/>
<path d="M1298 2303 c7 -3 16 -2 19 1 4 3 -2 6 -13 5 -11 0 -14 -3 -6 -6z"/>
<path d="M2265 2080 c-22 -23 -25 -30 -12 -30 26 0 87 33 87 47 0 24 -46 13
-75 -17z"/>
<path d="M2383 2093 c-19 -7 -16 -21 5 -27 44 -14 90 -159 77 -239 -17 -103
-66 -167 -127 -167 -22 0 -38 5 -38 12 0 6 -3 8 -7 5 -3 -4 -19 11 -35 33 -17
22 -34 40 -39 40 -15 0 -10 -31 12 -66 49 -79 131 -98 192 -44 56 49 81 119
81 225 -1 100 -14 142 -65 200 -32 36 -35 37 -56 28z"/>
<path d="M2223 2022 c-17 -11 -29 -72 -14 -72 8 0 41 60 41 76 0 6 -14 4 -27
-4z"/>
<path d="M2363 1998 c20 -16 37 -60 37 -99 0 -24 -4 -29 -25 -29 -14 0 -25 -4
-25 -10 0 -5 9 -10 20 -10 15 0 20 -7 20 -25 0 -25 -31 -65 -50 -65 -19 0 -50
44 -56 79 -9 57 -18 70 -22 35 -4 -43 20 -98 53 -120 24 -16 29 -16 60 -1 64
31 76 168 20 227 -16 17 -33 30 -39 30 -5 0 -2 -6 7 -12z"/>
<path d="M2180 1861 c0 -33 3 -66 6 -75 13 -33 24 -2 24 65 0 55 -3 69 -15 69
-12 0 -15 -13 -15 -59z"/>
<path d="M4540 2015 c-7 -18 -7 -33 0 -46 17 -31 30 -22 30 20 0 48 -16 62
-30 26z"/>
</g>
</svg>